<?xml version="1.0" standalone="no"?>
<!DOCTYPE svg PUBLIC "-//W3C//DTD SVG 20010904//EN"
 "http://www.w3.org/TR/2001/REC-SVG-20010904/DTD/svg10.dtd">
<svg version="1.0" xmlns="http://www.w3.org/2000/svg"
 width="984.000000pt" height="984.000000pt" viewBox="0 0 984.000000 984.000000"
 preserveAspectRatio="xMidYMid meet">
<metadata>
Created by potrace 1.14, written by Peter Selinger 2001-2017
</metadata>
<g transform="translate(0.000000,984.000000) scale(0.100000,-0.100000)"
fill="#000000" stroke="none">
<path d="M805 8905 c-362 -66 -647 -351 -710 -710 -13 -77 -15 -468 -15 -3275
0 -3507 -4 -3272 61 -3440 37 -97 112 -213 187 -293 72 -75 212 -168 313 -207
167 -64 -66 -60 3439 -60 2807 0 3198 2 3275 15 335 59 599 301 697 641 22 79
22 82 26 871 l3 792 525 488 c311 288 546 514 575 553 65 85 144 245 171 345
30 111 32 345 4 455 -37 144 -96 266 -179 370 -24 30 -280 309 -568 619 l-524
564 -5 776 c-6 769 -6 777 -28 855 -98 339 -363 582 -697 641 -77 13 -467 15
-3284 14 -2550 -1 -3210 -3 -3266 -14z m5140 -2050 c375 -61 663 -262 818
-572 95 -188 118 -441 60 -658 -20 -75 -81 -208 -124 -272 -87 -127 -230 -242
-354 -283 -70 -23 -81 -36 -37 -45 149 -32 332 -146 439 -273 290 -343 332
-817 105 -1182 -54 -88 -201 -239 -289 -298 -228 -153 -509 -232 -828 -232
-410 0 -760 128 -993 363 -183 184 -268 380 -279 642 -8 192 23 346 100 500
77 155 214 306 349 387 66 39 215 98 251 98 36 0 15 19 -44 39 -191 64 -344
208 -438 413 -72 157 -98 319 -80 508 42 440 393 782 888 865 106 18 347 18
456 0z m-2602 -607 c4 -314 7 -888 7 -1274 l0 -704 253 -2 252 -3 3 -202 2
-203 -255 0 -255 0 0 -380 0 -380 -215 0 -215 0 0 380 0 380 -353 0 c-195 0
-591 3 -880 7 l-527 6 0 180 0 179 816 1294 817 1294 272 0 272 0 6 -572z"/>
<path d="M5545 6456 c-260 -51 -441 -219 -491 -456 -23 -110 -15 -272 19 -369
63 -181 204 -313 402 -378 66 -21 105 -26 220 -30 171 -6 251 9 374 68 69 34
102 58 166 123 122 123 175 256 175 438 -1 281 -161 496 -438 585 -96 31 -314
41 -427 19z"/>
<path d="M5516 4801 c-361 -79 -586 -324 -603 -656 -15 -291 129 -513 405
-625 131 -53 209 -65 417 -65 163 0 203 4 278 23 256 64 439 220 505 432 22
68 31 192 21 275 -35 292 -231 507 -546 601 -122 36 -345 43 -477 15z"/>
<path d="M2267 5272 c-339 -539 -617 -984 -617 -989 0 -16 359 -25 845 -21
l420 3 0 88 c0 48 -2 494 -3 992 -2 724 -5 905 -15 905 -7 0 -290 -440 -630
-978z"/>
</g>
</svg>
